<!-- Generator: Adobe Illustrator 19.2.1, SVG Export Plug-In  -->
<svg version="1.1"
	 xmlns="http://www.w3.org/2000/svg" xmlns:xlink="http://www.w3.org/1999/xlink" xmlns:a="http://ns.adobe.com/AdobeSVGViewerExtensions/3.0/"
	 x="0px" y="0px" width="40.8px" height="40.8px" viewBox="0 0 40.8 40.8" style="enable-background:new 0 0 40.8 40.8;"
	 xml:space="preserve">
<style type="text/css">
	.st0{fill:#FAC13F;}
	.st1{fill:#9E501D;}
	.st2{fill:#E2444B;}
</style>
<defs>
</defs>
<g>
	<circle class="st0" cx="20.4" cy="20.4" r="20.4"/>
	<path class="st1" d="M27.7,26.9c0,3.8-3.1,7-7,7s-7-3.1-7-7H27.7z"/>
	<path class="st2" d="M18.2,15.8c0-2.3-1.8-4.1-4.1-4.1c-1.5,0-2.9,0.9-3.6,2.1c-0.7-1.3-2-2.1-3.6-2.1c-2.3,0-4.1,1.8-4.1,4.1
		c0,1.1,0.4,2.1,1.1,2.8l0,0l6.5,6.5l6.5-6.4l0,0C17.7,18,18.2,17,18.2,15.8z"/>
	<path class="st2" d="M38.6,15.8c0-2.3-1.8-4.1-4.1-4.1c-1.5,0-2.9,0.9-3.6,2.1c-0.7-1.3-2-2.1-3.6-2.1c-2.3,0-4.1,1.8-4.1,4.1
		c0,1.1,0.4,2.1,1.1,2.8l0,0l6.5,6.5l6.5-6.4l0,0C38.1,18,38.6,17,38.6,15.8z"/>
</g>
</svg>
